<svg width="40" height="38" viewBox="0 0 40 38" fill="none" xmlns="http://www.w3.org/2000/svg">
<path d="M2.51996 13.9636C2.18605 12.7935 2.08836 11.5687 2.23256 10.3605C2.37676 9.15236 2.75997 7.98496 3.35987 6.92636C4.5628 4.77953 6.56928 3.19849 8.93792 2.53106C11.3066 1.86362 13.8433 2.16446 15.9902 3.36739C18.818 4.95193 20.4991 7.79441 20.7117 10.8009C20.737 11.1592 20.9278 11.4897 21.2411 11.6652L22.3607 12.2926C22.6741 12.4682 23.0556 12.4583 23.3744 12.2927C24.6492 11.6304 26.0632 11.2727 27.5049 11.2514C29.1406 11.2271 30.7535 11.6368 32.1794 12.4387C34.3263 13.6416 35.9073 15.6481 36.5747 18.0168C37.2422 20.3854 36.9413 22.9222 35.7384 25.069C34.4898 27.2974 32.3849 28.8208 30.175 29.4595L9.57158 35.2498C9.04041 35.3991 8.4887 35.09 8.33869 34.559L2.51996 13.9636ZM30.7505 31.5588C33.5845 30.7442 36.0956 28.8979 37.643 26.1362C39.129 23.4842 39.5006 20.3506 38.6761 17.4246C37.8516 14.4987 35.8986 12.0201 33.2466 10.5341C30.3491 8.91051 27.0539 8.6717 24.128 9.62264C23.4783 9.83377 22.7547 9.42836 22.5955 8.76409C22.2832 7.46084 21.7427 6.21923 20.9953 5.09812C19.9903 3.59053 18.6403 2.34429 17.0574 1.46277C14.4054 -0.0232067 11.2718 -0.394829 8.34579 0.429653C5.41982 1.25413 2.94122 3.20718 1.45525 5.85915C-0.0922112 8.62085 -0.355863 11.7265 0.429001 14.5688L6.82354 37.2621C6.97333 37.7936 7.52569 38.1032 8.05727 37.9534L30.7505 31.5588Z" fill="white"/>
<path d="M2.51996 13.9636C2.18605 12.7935 2.08836 11.5687 2.23256 10.3605C2.37676 9.15236 2.75997 7.98496 3.35987 6.92636C4.5628 4.77953 6.56928 3.19849 8.93792 2.53106C11.3066 1.86362 13.8433 2.16446 15.9902 3.36739C18.818 4.95193 20.4991 7.79441 20.7117 10.8009C20.737 11.1592 20.9278 11.4897 21.2411 11.6652L22.3607 12.2926C22.6741 12.4682 23.0556 12.4583 23.3744 12.2927C24.6492 11.6304 26.0632 11.2727 27.5049 11.2514C29.1406 11.2271 30.7535 11.6368 32.1794 12.4387C34.3263 13.6416 35.9073 15.6481 36.5747 18.0168C37.2422 20.3854 36.9413 22.9222 35.7384 25.069C34.4898 27.2974 32.3849 28.8208 30.175 29.4595L9.57158 35.2498C9.04041 35.3991 8.4887 35.09 8.33869 34.559L2.51996 13.9636Z" fill="white"/>
</svg>
