<svg width="36" height="26" viewBox="0 0 36 26" fill="none" xmlns="http://www.w3.org/2000/svg">
<path d="M12.1355 12.8756C10.8977 13.9482 9.33643 14.5754 7.70066 14.6575C6.06488 14.7395 4.44872 14.2716 3.10981 13.3283C1.77089 12.385 0.78628 11.0207 0.312936 9.45273C-0.160408 7.88479 -0.0952429 6.20352 0.498045 4.67692C1.09133 3.15032 2.17859 1.86627 3.5865 1.02945C4.99442 0.192634 6.64195 -0.148784 8.26647 0.0596216C9.89098 0.268027 11.399 1.01426 12.5501 2.17937C13.7012 3.34448 14.4291 4.86139 14.6178 6.48831C15.2705 9.80665 15.2632 13.7611 13.7672 17.305C12.1868 21.045 8.99865 24.1983 3.55548 25.6228C3.3802 25.6705 3.1972 25.683 3.01706 25.6595C2.83693 25.636 2.66323 25.5771 2.506 25.4861C2.34877 25.3952 2.21112 25.2739 2.10102 25.1294C1.99091 24.985 1.91052 24.8201 1.8645 24.6444C1.81848 24.4686 1.80773 24.2855 1.83289 24.1056C1.85804 23.9257 1.91859 23.7526 2.01105 23.5962C2.1035 23.4398 2.22602 23.3033 2.37154 23.1946C2.51705 23.0858 2.68266 23.007 2.85882 22.9626C7.49899 21.7471 9.99415 19.1676 11.2335 16.2343C11.681 15.1594 11.9843 14.0301 12.1355 12.8756Z" fill="#291806"/>
<path d="M32.1355 12.8756C30.8977 13.9482 29.3364 14.5754 27.7007 14.6575C26.0649 14.7395 24.4487 14.2716 23.1098 13.3283C21.7709 12.385 20.7863 11.0207 20.3129 9.45273C19.8396 7.88479 19.9048 6.20352 20.498 4.67692C21.0913 3.15032 22.1786 1.86627 23.5865 1.02945C24.9944 0.192634 26.6419 -0.148784 28.2665 0.0596216C29.891 0.268027 31.399 1.01426 32.5501 2.17937C33.7012 3.34448 34.4291 4.86139 34.6178 6.48831C35.2705 9.80665 35.2632 13.7611 33.7672 17.305C32.1868 21.045 28.9987 24.1983 23.5555 25.6228C23.3802 25.6705 23.1972 25.683 23.0171 25.6595C22.8369 25.636 22.6632 25.5771 22.506 25.4861C22.3488 25.3952 22.2111 25.2739 22.101 25.1294C21.9909 24.985 21.9105 24.8201 21.8645 24.6444C21.8185 24.4686 21.8077 24.2855 21.8329 24.1056C21.858 23.9257 21.9186 23.7526 22.011 23.5962C22.1035 23.4398 22.226 23.3033 22.3715 23.1946C22.517 23.0858 22.6827 23.007 22.8588 22.9626C27.499 21.7471 29.9942 19.1676 31.2335 16.2343C31.681 15.1594 31.9843 14.0301 32.1355 12.8756Z" fill="#291806"/>
</svg>
