<svg width="28" height="26" viewBox="0 0 28 26" fill="none" xmlns="http://www.w3.org/2000/svg">
<path d="M4.21343 15.2615C3.53378 14.8081 2.95114 14.2241 2.49947 13.5433C2.0478 12.8626 1.73613 12.0987 1.58263 11.2963C1.26434 9.67497 1.60316 7.99358 2.52456 6.62204C3.44597 5.2505 4.87448 4.30116 6.49583 3.98286C8.63154 3.5636 10.7276 4.28659 12.1439 5.73209C12.3127 5.90434 12.554 5.99044 12.7907 5.94398L13.6362 5.77799C13.8729 5.73153 14.0638 5.56056 14.1548 5.33722C14.5189 4.44404 15.0867 3.64608 15.8149 3.00817C16.6411 2.28441 17.6444 1.79253 18.7225 1.58261C20.3439 1.26432 22.0252 1.60314 23.3968 2.52454C24.7683 3.44595 25.7177 4.87446 26.036 6.49581C26.3663 8.17878 25.9521 9.87348 25.0995 11.1613L17.078 23.0837C16.8712 23.391 16.4545 23.4728 16.1469 23.2665L4.21343 15.2615ZM26.3068 11.9849C27.4023 10.3357 27.8838 8.29916 27.4744 6.21343C27.0812 4.21058 25.9085 2.44595 24.2142 1.30774C22.52 0.169539 20.443 -0.249009 18.4401 0.144177C16.2518 0.573772 14.4623 1.88469 13.3791 3.64361C13.1386 4.03413 12.5921 4.14148 12.2218 3.87089C11.4953 3.34002 10.6788 2.93997 9.80889 2.69149C8.63914 2.35736 7.40658 2.30694 6.21345 2.54443C4.2106 2.93762 2.44597 4.11033 1.30776 5.80459C0.169559 7.49884 -0.248989 9.57585 0.144198 11.5787C0.553653 13.6644 1.76942 15.3678 3.40702 16.4804L16.5474 25.3081C16.8552 25.5149 17.2723 25.433 17.4791 25.1252L26.3068 11.9849Z" fill="#FF001F"/>
<path d="M4.21343 15.2615C3.53378 14.8081 2.95114 14.2241 2.49947 13.5433C2.0478 12.8626 1.73613 12.0987 1.58263 11.2963C1.26434 9.67497 1.60316 7.99358 2.52456 6.62204C3.44597 5.2505 4.87448 4.30116 6.49583 3.98286C8.63154 3.5636 10.7276 4.28659 12.1439 5.73209C12.3127 5.90434 12.554 5.99044 12.7907 5.94398L13.6362 5.77799C13.8729 5.73153 14.0638 5.56056 14.1548 5.33722C14.5189 4.44404 15.0867 3.64608 15.8149 3.00817C16.6411 2.28441 17.6444 1.79253 18.7225 1.58261C20.3439 1.26432 22.0252 1.60314 23.3968 2.52454C24.7683 3.44595 25.7177 4.87446 26.036 6.49581C26.3663 8.17878 25.9521 9.87348 25.0995 11.1613L17.078 23.0837C16.8712 23.391 16.4545 23.4728 16.1469 23.2665L4.21343 15.2615Z" fill="#FF001F"/>
</svg>
