<svg width="13" height="13" viewBox="0 0 13 13" fill="none" xmlns="http://www.w3.org/2000/svg">
<path d="M5.33242 0.428102C5.60761 -0.142747 6.42059 -0.142746 6.69578 0.428103L8.17614 3.49893C8.2505 3.65317 8.37496 3.77764 8.5292 3.85199L11.6 5.33236C12.1709 5.60755 12.1709 6.42053 11.6 6.69572L8.5292 8.17608C8.37496 8.25044 8.2505 8.3749 8.17614 8.52914L6.69578 11.6C6.42059 12.1708 5.60761 12.1708 5.33242 11.6L3.85206 8.52914C3.7777 8.3749 3.65323 8.25044 3.49899 8.17608L0.428163 6.69572C-0.142686 6.42053 -0.142685 5.60755 0.428164 5.33236L3.49899 3.85199C3.65323 3.77764 3.7777 3.65317 3.85206 3.49893L5.33242 0.428102Z" fill="white" fill-opacity="0.6"/>
</svg>
